<svg xmlns="http://www.w3.org/2000/svg" viewBox="0 0 368.8 328.1"><radialGradient id="a" cx="358.454" cy="259.424" r="289.559" gradientTransform="matrix(-.866 -.5 .4 -.6928 565.114 618.385)" gradientUnits="userSpaceOnUse"><stop offset=".28" stop-color="#19398a"/><stop offset=".316" stop-color="#23368a"/><stop offset=".377" stop-color="#3d2f8a"/><stop offset=".455" stop-color="#67248b"/><stop offset=".546" stop-color="#a1148b"/><stop offset=".649" stop-color="#eb008c"/><stop offset=".65" stop-color="#ec008c"/><stop offset=".685" stop-color="#eb1e7d"/><stop offset=".771" stop-color="#e8645a"/><stop offset=".849" stop-color="#e59b3f"/><stop offset=".915" stop-color="#e3c32b"/><stop offset=".968" stop-color="#e2db1e"/><stop offset="1" stop-color="#e2e41a"/></radialGradient><path d="M159.2 315.8s7.7 2.6 8.9 3l101.8 5.3c2.2-.5 5.2-1 7.4-1.5-60.8-7.4-101-7.4-118.1-6.8z" fill="url(#a)"/><radialGradient id="b" cx="358.454" cy="259.424" r="289.559" gradientTransform="matrix(-.866 -.5 .4 -.6928 565.114 618.385)" gradientUnits="userSpaceOnUse"><stop offset=".28" stop-color="#19398a"/><stop offset=".316" stop-color="#23368a"/><stop offset=".377" stop-color="#3d2f8a"/><stop offset=".455" stop-color="#67248b"/><stop offset=".546" stop-color="#a1148b"/><stop offset=".649" stop-color="#eb008c"/><stop offset=".65" stop-color="#ec008c"/><stop offset=".685" stop-color="#eb1e7d"/><stop offset=".771" stop-color="#e8645a"/><stop offset=".849" stop-color="#e59b3f"/><stop offset=".915" stop-color="#e3c32b"/><stop offset=".968" stop-color="#e2db1e"/><stop offset="1" stop-color="#e2e41a"/></radialGradient><path d="M9 85.1L8.2 87l342.1 186.3c.4-.6.8-1.3 1.2-1.9C217.7 185.9 55.6 107.2 9 85.1z" fill="url(#b)"/><radialGradient id="c" cx="358.454" cy="259.424" r="289.559" gradientTransform="matrix(-.866 -.5 .4 -.6928 565.114 618.385)" gradientUnits="userSpaceOnUse"><stop offset=".28" stop-color="#19398a"/><stop offset=".316" stop-color="#23368a"/><stop offset=".377" stop-color="#3d2f8a"/><stop offset=".455" stop-color="#67248b"/><stop offset=".546" stop-color="#a1148b"/><stop offset=".649" stop-color="#eb008c"/><stop offset=".65" stop-color="#ec008c"/><stop offset=".685" stop-color="#eb1e7d"/><stop offset=".771" stop-color="#e8645a"/><stop offset=".849" stop-color="#e59b3f"/><stop offset=".915" stop-color="#e3c32b"/><stop offset=".968" stop-color="#e2db1e"/><stop offset="1" stop-color="#e2e41a"/></radialGradient><path d="M36.4 38.6l-1.6 1.9 322.3 220.8c.3-.7.7-1.3 1-2C234.9 161.2 80.8 65.6 36.4 38.6z" fill="url(#c)"/><radialGradient id="d" cx="358.454" cy="259.424" r="289.559" gradientTransform="matrix(-.866 -.5 .4 -.6928 565.114 618.385)" gradientUnits="userSpaceOnUse"><stop offset=".28" stop-color="#19398a"/><stop offset=".316" stop-color="#23368a"/><stop offset=".377" stop-color="#3d2f8a"/><stop offset=".455" stop-color="#67248b"/><stop offset=".546" stop-color="#a1148b"/><stop offset=".649" stop-color="#eb008c"/><stop offset=".65" stop-color="#ec008c"/><stop offset=".685" stop-color="#eb1e7d"/><stop offset=".771" stop-color="#e8645a"/><stop offset=".849" stop-color="#e59b3f"/><stop offset=".915" stop-color="#e3c32b"/><stop offset=".968" stop-color="#e2db1e"/><stop offset="1" stop-color="#e2e41a"/></radialGradient><path d="M3.5 102.7l-.4 2.1 344.7 172.1c.5-.6.9-1.3 1.3-1.9C213.5 195 50.3 122.9 3.5 102.7z" fill="url(#d)"/><radialGradient id="e" cx="358.454" cy="259.424" r="289.559" gradientTransform="matrix(-.866 -.5 .4 -.6928 565.114 618.385)" gradientUnits="userSpaceOnUse"><stop offset=".28" stop-color="#19398a"/><stop offset=".316" stop-color="#23368a"/><stop offset=".377" stop-color="#3d2f8a"/><stop offset=".455" stop-color="#67248b"/><stop offset=".546" stop-color="#a1148b"/><stop offset=".649" stop-color="#eb008c"/><stop offset=".65" stop-color="#ec008c"/><stop offset=".685" stop-color="#eb1e7d"/><stop offset=".771" stop-color="#e8645a"/><stop offset=".849" stop-color="#e59b3f"/><stop offset=".915" stop-color="#e3c32b"/><stop offset=".968" stop-color="#e2db1e"/><stop offset="1" stop-color="#e2e41a"/></radialGradient><path d="M290.8 318.4c-96.3-13.9-148.7-11.8-157-11.3l4.7 1.4 146.8 11.7c1.8-.5 3.6-1.1 5.5-1.8z" fill="url(#e)"/><radialGradient id="f" cx="358.454" cy="259.424" r="289.559" gradientTransform="matrix(-.866 -.5 .4 -.6928 565.114 618.385)" gradientUnits="userSpaceOnUse"><stop offset=".28" stop-color="#19398a"/><stop offset=".316" stop-color="#23368a"/><stop offset=".377" stop-color="#3d2f8a"/><stop offset=".455" stop-color="#67248b"/><stop offset=".546" stop-color="#a1148b"/><stop offset=".649" stop-color="#eb008c"/><stop offset=".65" stop-color="#ec008c"/><stop offset=".685" stop-color="#eb1e7d"/><stop offset=".771" stop-color="#e8645a"/><stop offset=".849" stop-color="#e59b3f"/><stop offset=".915" stop-color="#e3c32b"/><stop offset=".968" stop-color="#e2db1e"/><stop offset="1" stop-color="#e2e41a"/></radialGradient><path d="M2.3 159.6l.4 2.3 336 126c.6-.6 1.2-1.3 1.8-2C200.4 222.2 46.2 173.1 2.3 159.6z" fill="url(#f)"/><radialGradient id="g" cx="358.454" cy="259.424" r="289.559" gradientTransform="matrix(-.866 -.5 .4 -.6928 565.114 618.385)" gradientUnits="userSpaceOnUse"><stop offset=".28" stop-color="#19398a"/><stop offset=".316" stop-color="#23368a"/><stop offset=".377" stop-color="#3d2f8a"/><stop offset=".455" stop-color="#67248b"/><stop offset=".546" stop-color="#a1148b"/><stop offset=".649" stop-color="#eb008c"/><stop offset=".65" stop-color="#ec008c"/><stop offset=".685" stop-color="#eb1e7d"/><stop offset=".771" stop-color="#e8645a"/><stop offset=".849" stop-color="#e59b3f"/><stop offset=".915" stop-color="#e3c32b"/><stop offset=".968" stop-color="#e2db1e"/><stop offset="1" stop-color="#e2e41a"/></radialGradient><path d="M0 140.5l.3 2.4 341.5 141.4c.6-.7 1.1-1.3 1.7-2C204.3 213 45.2 156.2 0 140.5z" fill="url(#g)"/><radialGradient id="h" cx="358.454" cy="259.424" r="289.559" gradientTransform="matrix(-.866 -.5 .4 -.6928 565.114 618.385)" gradientUnits="userSpaceOnUse"><stop offset=".28" stop-color="#19398a"/><stop offset=".316" stop-color="#23368a"/><stop offset=".377" stop-color="#3d2f8a"/><stop offset=".455" stop-color="#67248b"/><stop offset=".546" stop-color="#a1148b"/><stop offset=".649" stop-color="#eb008c"/><stop offset=".65" stop-color="#ec008c"/><stop offset=".685" stop-color="#eb1e7d"/><stop offset=".771" stop-color="#e8645a"/><stop offset=".849" stop-color="#e59b3f"/><stop offset=".915" stop-color="#e3c32b"/><stop offset=".968" stop-color="#e2db1e"/><stop offset="1" stop-color="#e2e41a"/></radialGradient><path d="M.2 121.1l-.2 2.1 345 157.1c.5-.6 1-1.3 1.5-1.9C207.9 203.1 46.3 139 .2 121.1z" fill="url(#h)"/><radialGradient id="i" cx="358.454" cy="259.424" r="289.559" gradientTransform="matrix(-.866 -.5 .4 -.6928 565.114 618.385)" gradientUnits="userSpaceOnUse"><stop offset=".28" stop-color="#19398a"/><stop offset=".316" stop-color="#23368a"/><stop offset=".377" stop-color="#3d2f8a"/><stop offset=".455" stop-color="#67248b"/><stop offset=".546" stop-color="#a1148b"/><stop offset=".649" stop-color="#eb008c"/><stop offset=".65" stop-color="#ec008c"/><stop offset=".685" stop-color="#eb1e7d"/><stop offset=".771" stop-color="#e8645a"/><stop offset=".849" stop-color="#e59b3f"/><stop offset=".915" stop-color="#e3c32b"/><stop offset=".968" stop-color="#e2db1e"/><stop offset="1" stop-color="#e2e41a"/></radialGradient><path d="M222.4 23.8l146.4 183.4c0-1.7-.1-3.3-.2-5-33.4-47-63.5-87.1-89.6-119.1-22.7-27.9-38.5-44.9-47.4-53.7-1.5-.8-9.2-5.6-9.2-5.6z" fill="url(#i)"/><radialGradient id="j" cx="358.454" cy="259.424" r="289.559" gradientTransform="matrix(-.866 -.5 .4 -.6928 565.114 618.385)" gradientUnits="userSpaceOnUse"><stop offset=".28" stop-color="#19398a"/><stop offset=".316" stop-color="#23368a"/><stop offset=".377" stop-color="#3d2f8a"/><stop offset=".455" stop-color="#67248b"/><stop offset=".546" stop-color="#a1148b"/><stop offset=".649" stop-color="#eb008c"/><stop offset=".65" stop-color="#ec008c"/><stop offset=".685" stop-color="#eb1e7d"/><stop offset=".771" stop-color="#e8645a"/><stop offset=".849" stop-color="#e59b3f"/><stop offset=".915" stop-color="#e3c32b"/><stop offset=".968" stop-color="#e2db1e"/><stop offset="1" stop-color="#e2e41a"/></radialGradient><path d="M368.7 216.4c.1-1.3.1-2.6.1-3.9-22.3-29.6-44.1-57.6-64.9-83.2-52.2-64-86.4-99-102.2-114.3l-6.4-2.9 173.4 204.3z" fill="url(#j)"/><radialGradient id="k" cx="358.454" cy="259.424" r="289.559" gradientTransform="matrix(-.866 -.5 .4 -.6928 565.114 618.385)" gradientUnits="userSpaceOnUse"><stop offset=".28" stop-color="#19398a"/><stop offset=".316" stop-color="#23368a"/><stop offset=".377" stop-color="#3d2f8a"/><stop offset=".455" stop-color="#67248b"/><stop offset=".546" stop-color="#a1148b"/><stop offset=".649" stop-color="#eb008c"/><stop offset=".65" stop-color="#ec008c"/><stop offset=".685" stop-color="#eb1e7d"/><stop offset=".771" stop-color="#e8645a"/><stop offset=".849" stop-color="#e59b3f"/><stop offset=".915" stop-color="#e3c32b"/><stop offset=".968" stop-color="#e2db1e"/><stop offset="1" stop-color="#e2e41a"/></radialGradient><path d="M368.3 221.7c-5.9-7.4-11.9-14.8-17.8-22C264.8 94.4 198.2 28.3 174.3 5.4l-4.8-1.3L367.9 225c.1-1.1.3-2.2.4-3.3z" fill="url(#k)"/><radialGradient id="l" cx="358.454" cy="259.424" r="289.559" gradientTransform="matrix(-.866 -.5 .4 -.6928 565.114 618.385)" gradientUnits="userSpaceOnUse"><stop offset=".28" stop-color="#19398a"/><stop offset=".316" stop-color="#23368a"/><stop offset=".377" stop-color="#3d2f8a"/><stop offset=".455" stop-color="#67248b"/><stop offset=".546" stop-color="#a1148b"/><stop offset=".649" stop-color="#eb008c"/><stop offset=".65" stop-color="#ec008c"/><stop offset=".685" stop-color="#eb1e7d"/><stop offset=".771" stop-color="#e8645a"/><stop offset=".849" stop-color="#e59b3f"/><stop offset=".915" stop-color="#e3c32b"/><stop offset=".968" stop-color="#e2db1e"/><stop offset="1" stop-color="#e2e41a"/></radialGradient><path d="M144.7.1L366.9 232c.2-.9.3-1.9.5-2.8C270.7 115.3 183.9 32 150.5 1.1l-5.8-1z" fill="url(#l)"/><radialGradient id="m" cx="358.454" cy="259.424" r="289.559" gradientTransform="matrix(-.866 -.5 .4 -.6928 565.114 618.385)" gradientUnits="userSpaceOnUse"><stop offset=".28" stop-color="#19398a"/><stop offset=".316" stop-color="#23368a"/><stop offset=".377" stop-color="#3d2f8a"/><stop offset=".455" stop-color="#67248b"/><stop offset=".546" stop-color="#a1148b"/><stop offset=".649" stop-color="#eb008c"/><stop offset=".65" stop-color="#ec008c"/><stop offset=".685" stop-color="#eb1e7d"/><stop offset=".771" stop-color="#e8645a"/><stop offset=".849" stop-color="#e59b3f"/><stop offset=".915" stop-color="#e3c32b"/><stop offset=".968" stop-color="#e2db1e"/><stop offset="1" stop-color="#e2e41a"/></radialGradient><path d="M315.7 86.7c-1.1-1.2-7.6-7.4-7.6-7.4l52.9 84.1c-8.5-26.4-23.9-52.8-45.3-76.7z" fill="url(#m)"/><radialGradient id="n" cx="358.454" cy="259.424" r="289.559" gradientTransform="matrix(-.866 -.5 .4 -.6928 565.114 618.385)" gradientUnits="userSpaceOnUse"><stop offset=".28" stop-color="#19398a"/><stop offset=".316" stop-color="#23368a"/><stop offset=".377" stop-color="#3d2f8a"/><stop offset=".455" stop-color="#67248b"/><stop offset=".546" stop-color="#a1148b"/><stop offset=".649" stop-color="#eb008c"/><stop offset=".65" stop-color="#ec008c"/><stop offset=".685" stop-color="#eb1e7d"/><stop offset=".771" stop-color="#e8645a"/><stop offset=".849" stop-color="#e59b3f"/><stop offset=".915" stop-color="#e3c32b"/><stop offset=".968" stop-color="#e2db1e"/><stop offset="1" stop-color="#e2e41a"/></radialGradient><path d="M6.2 178.1l.8 2.5 328 110.9 2.1-2.1C195.7 231.2 47.8 189.4 6.2 178.1z" fill="url(#n)"/><radialGradient id="o" cx="358.454" cy="259.424" r="289.559" gradientTransform="matrix(-.866 -.5 .4 -.6928 565.114 618.385)" gradientUnits="userSpaceOnUse"><stop offset=".28" stop-color="#19398a"/><stop offset=".316" stop-color="#23368a"/><stop offset=".377" stop-color="#3d2f8a"/><stop offset=".455" stop-color="#67248b"/><stop offset=".546" stop-color="#a1148b"/><stop offset=".649" stop-color="#eb008c"/><stop offset=".65" stop-color="#ec008c"/><stop offset=".685" stop-color="#eb1e7d"/><stop offset=".771" stop-color="#e8645a"/><stop offset=".849" stop-color="#e59b3f"/><stop offset=".915" stop-color="#e3c32b"/><stop offset=".968" stop-color="#e2db1e"/><stop offset="1" stop-color="#e2e41a"/></radialGradient><path d="M260.4 326c-21.4-.9-48.7-1.8-72.2-2.3 23.5 4.7 46.4 5.6 67.6 3l4.6-.7z" fill="url(#o)"/><radialGradient id="p" cx="358.454" cy="259.424" r="289.559" gradientTransform="matrix(-.866 -.5 .4 -.6928 565.114 618.385)" gradientUnits="userSpaceOnUse"><stop offset=".28" stop-color="#19398a"/><stop offset=".316" stop-color="#23368a"/><stop offset=".377" stop-color="#3d2f8a"/><stop offset=".455" stop-color="#67248b"/><stop offset=".546" stop-color="#a1148b"/><stop offset=".649" stop-color="#eb008c"/><stop offset=".65" stop-color="#ec008c"/><stop offset=".685" stop-color="#eb1e7d"/><stop offset=".771" stop-color="#e8645a"/><stop offset=".849" stop-color="#e59b3f"/><stop offset=".915" stop-color="#e3c32b"/><stop offset=".968" stop-color="#e2db1e"/><stop offset="1" stop-color="#e2e41a"/></radialGradient><path d="M251.6 37.8l116.7 160.8c-.2-2.1-.4-4.3-.7-6.4C328.7 131.4 297.9 87 275.9 60c-5-6.1-7.1-8.8-11.1-12.9-2.5-1.5-13.2-9.3-13.2-9.3z" fill="url(#p)"/><radialGradient id="q" cx="358.454" cy="259.424" r="289.559" gradientTransform="matrix(-.866 -.5 .4 -.6928 565.114 618.385)" gradientUnits="userSpaceOnUse"><stop offset=".28" stop-color="#19398a"/><stop offset=".316" stop-color="#23368a"/><stop offset=".377" stop-color="#3d2f8a"/><stop offset=".455" stop-color="#67248b"/><stop offset=".546" stop-color="#a1148b"/><stop offset=".649" stop-color="#eb008c"/><stop offset=".65" stop-color="#ec008c"/><stop offset=".685" stop-color="#eb1e7d"/><stop offset=".771" stop-color="#e8645a"/><stop offset=".849" stop-color="#e59b3f"/><stop offset=".915" stop-color="#e3c32b"/><stop offset=".968" stop-color="#e2db1e"/><stop offset="1" stop-color="#e2e41a"/></radialGradient><path d="M276.4 52.5l90 130.9c-.6-3.2-1.6-7.8-2.4-11-33.2-51.1-53.8-82.3-68.5-103l-19.1-16.9z" fill="url(#q)"/><radialGradient id="r" cx="358.454" cy="259.424" r="289.559" gradientTransform="matrix(-.866 -.5 .4 -.6928 565.114 618.385)" gradientUnits="userSpaceOnUse"><stop offset=".28" stop-color="#19398a"/><stop offset=".316" stop-color="#23368a"/><stop offset=".377" stop-color="#3d2f8a"/><stop offset=".455" stop-color="#67248b"/><stop offset=".546" stop-color="#a1148b"/><stop offset=".649" stop-color="#eb008c"/><stop offset=".65" stop-color="#ec008c"/><stop offset=".685" stop-color="#eb1e7d"/><stop offset=".771" stop-color="#e8645a"/><stop offset=".849" stop-color="#e59b3f"/><stop offset=".915" stop-color="#e3c32b"/><stop offset=".968" stop-color="#e2db1e"/><stop offset="1" stop-color="#e2e41a"/></radialGradient><path d="M48.4 27.5l310.7 229.6.9-2.1C245.5 157.4 105.3 62.1 50.5 25.7l-2.1 1.8z" fill="url(#r)"/><radialGradient id="s" cx="358.454" cy="259.424" r="289.559" gradientTransform="matrix(-.866 -.5 .4 -.6928 565.114 618.385)" gradientUnits="userSpaceOnUse"><stop offset=".28" stop-color="#19398a"/><stop offset=".316" stop-color="#23368a"/><stop offset=".377" stop-color="#3d2f8a"/><stop offset=".455" stop-color="#67248b"/><stop offset=".546" stop-color="#a1148b"/><stop offset=".649" stop-color="#eb008c"/><stop offset=".65" stop-color="#ec008c"/><stop offset=".685" stop-color="#eb1e7d"/><stop offset=".771" stop-color="#e8645a"/><stop offset=".849" stop-color="#e59b3f"/><stop offset=".915" stop-color="#e3c32b"/><stop offset=".968" stop-color="#e2db1e"/><stop offset="1" stop-color="#e2e41a"/></radialGradient><path d="M84.2 7.6l-3.1 1.2 281.5 239.7c.3-.8.5-1.5.8-2.3C255.6 141.3 132.5 44.7 84.2 7.6z" fill="url(#s)"/><radialGradient id="t" cx="358.454" cy="259.424" r="289.559" gradientTransform="matrix(-.866 -.5 .4 -.6928 565.114 618.385)" gradientUnits="userSpaceOnUse"><stop offset=".28" stop-color="#19398a"/><stop offset=".316" stop-color="#23368a"/><stop offset=".377" stop-color="#3d2f8a"/><stop offset=".455" stop-color="#67248b"/><stop offset=".546" stop-color="#a1148b"/><stop offset=".649" stop-color="#eb008c"/><stop offset=".65" stop-color="#ec008c"/><stop offset=".685" stop-color="#eb1e7d"/><stop offset=".771" stop-color="#e8645a"/><stop offset=".849" stop-color="#e59b3f"/><stop offset=".915" stop-color="#e3c32b"/><stop offset=".968" stop-color="#e2db1e"/><stop offset="1" stop-color="#e2e41a"/></radialGradient><path d="M352.9 269.1c.4-.7.8-1.3 1.2-2C223.3 177 62.1 93.1 15.7 69.4l-1 1.9 338.2 197.8z" fill="url(#t)"/><radialGradient id="u" cx="358.454" cy="259.424" r="289.559" gradientTransform="matrix(-.866 -.5 .4 -.6928 565.114 618.385)" gradientUnits="userSpaceOnUse"><stop offset=".28" stop-color="#19398a"/><stop offset=".316" stop-color="#23368a"/><stop offset=".377" stop-color="#3d2f8a"/><stop offset=".455" stop-color="#67248b"/><stop offset=".546" stop-color="#a1148b"/><stop offset=".649" stop-color="#eb008c"/><stop offset=".65" stop-color="#ec008c"/><stop offset=".685" stop-color="#eb1e7d"/><stop offset=".771" stop-color="#e8645a"/><stop offset=".849" stop-color="#e59b3f"/><stop offset=".915" stop-color="#e3c32b"/><stop offset=".968" stop-color="#e2db1e"/><stop offset="1" stop-color="#e2e41a"/></radialGradient><path d="M14 197.7l1.2 2.6 316.1 94.6c.6-.6 1.3-1.1 1.9-1.7C190 239.6 52.4 206.5 14 197.7z" fill="url(#u)"/><radialGradient id="v" cx="358.454" cy="259.424" r="289.559" gradientTransform="matrix(-.866 -.5 .4 -.6928 565.114 618.385)" gradientUnits="userSpaceOnUse"><stop offset=".28" stop-color="#19398a"/><stop offset=".316" stop-color="#23368a"/><stop offset=".377" stop-color="#3d2f8a"/><stop offset=".455" stop-color="#67248b"/><stop offset=".546" stop-color="#a1148b"/><stop offset=".649" stop-color="#eb008c"/><stop offset=".65" stop-color="#ec008c"/><stop offset=".685" stop-color="#eb1e7d"/><stop offset=".771" stop-color="#e8645a"/><stop offset=".849" stop-color="#e59b3f"/><stop offset=".915" stop-color="#e3c32b"/><stop offset=".968" stop-color="#e2db1e"/><stop offset="1" stop-color="#e2e41a"/></radialGradient><path d="M101.8 2.6l262.3 240.9c.2-.8.4-1.6.7-2.4-106.6-110.9-217-204-259.7-239l-3.3.5z" fill="url(#v)"/><radialGradient id="w" cx="358.454" cy="259.424" r="289.559" gradientTransform="matrix(-.866 -.5 .4 -.6928 565.114 618.385)" gradientUnits="userSpaceOnUse"><stop offset=".28" stop-color="#19398a"/><stop offset=".316" stop-color="#23368a"/><stop offset=".377" stop-color="#3d2f8a"/><stop offset=".455" stop-color="#67248b"/><stop offset=".546" stop-color="#a1148b"/><stop offset=".649" stop-color="#eb008c"/><stop offset=".65" stop-color="#ec008c"/><stop offset=".685" stop-color="#eb1e7d"/><stop offset=".771" stop-color="#e8645a"/><stop offset=".849" stop-color="#e59b3f"/><stop offset=".915" stop-color="#e3c32b"/><stop offset=".968" stop-color="#e2db1e"/><stop offset="1" stop-color="#e2e41a"/></radialGradient><path d="M127 .1l-4-.1 242.5 238.1c.2-.8.4-1.7.6-2.5C264 122.4 165.2 33.5 127 .1z" fill="url(#w)"/><radialGradient id="x" cx="358.454" cy="259.424" r="289.559" gradientTransform="matrix(-.866 -.5 .4 -.6928 565.114 618.385)" gradientUnits="userSpaceOnUse"><stop offset=".28" stop-color="#19398a"/><stop offset=".316" stop-color="#23368a"/><stop offset=".377" stop-color="#3d2f8a"/><stop offset=".455" stop-color="#67248b"/><stop offset=".546" stop-color="#a1148b"/><stop offset=".649" stop-color="#eb008c"/><stop offset=".65" stop-color="#ec008c"/><stop offset=".685" stop-color="#eb1e7d"/><stop offset=".771" stop-color="#e8645a"/><stop offset=".849" stop-color="#e59b3f"/><stop offset=".915" stop-color="#e3c32b"/><stop offset=".968" stop-color="#e2db1e"/><stop offset="1" stop-color="#e2e41a"/></radialGradient><path d="M65.6 15.8l-2.2 1.4 297.5 235.9c.3-.7.5-1.4.8-2.1C244.7 144.1 105.5 44 65.6 15.8z" fill="url(#x)"/><radialGradient id="y" cx="358.454" cy="259.424" r="289.559" gradientTransform="matrix(-.866 -.5 .4 -.6928 565.114 618.385)" gradientUnits="userSpaceOnUse"><stop offset=".28" stop-color="#19398a"/><stop offset=".316" stop-color="#23368a"/><stop offset=".377" stop-color="#3d2f8a"/><stop offset=".455" stop-color="#67248b"/><stop offset=".546" stop-color="#a1148b"/><stop offset=".649" stop-color="#eb008c"/><stop offset=".65" stop-color="#ec008c"/><stop offset=".685" stop-color="#eb1e7d"/><stop offset=".771" stop-color="#e8645a"/><stop offset=".849" stop-color="#e59b3f"/><stop offset=".915" stop-color="#e3c32b"/><stop offset=".968" stop-color="#e2db1e"/><stop offset="1" stop-color="#e2e41a"/></radialGradient><path d="M356.1 263.6C228.4 168.8 70.6 78.1 25.2 52.5L24 54.3l331 211.1c.4-.6.7-1.2 1.1-1.8z" fill="url(#y)"/><radialGradient id="z" cx="358.454" cy="259.424" r="289.559" gradientTransform="matrix(-.866 -.5 .4 -.6928 565.114 618.385)" gradientUnits="userSpaceOnUse"><stop offset=".28" stop-color="#19398a"/><stop offset=".316" stop-color="#23368a"/><stop offset=".377" stop-color="#3d2f8a"/><stop offset=".455" stop-color="#67248b"/><stop offset=".546" stop-color="#a1148b"/><stop offset=".649" stop-color="#eb008c"/><stop offset=".65" stop-color="#ec008c"/><stop offset=".685" stop-color="#eb1e7d"/><stop offset=".771" stop-color="#e8645a"/><stop offset=".849" stop-color="#e59b3f"/><stop offset=".915" stop-color="#e3c32b"/><stop offset=".968" stop-color="#e2db1e"/><stop offset="1" stop-color="#e2e41a"/></radialGradient><path d="M87.5 281.4l2 1.2 215.2 29.9 3.6-1.8c-166.2-32-220.1-29.3-220.8-29.3z" fill="url(#z)"/><radialGradient id="A" cx="358.454" cy="259.424" r="289.559" gradientTransform="matrix(-.866 -.5 .4 -.6928 565.114 618.385)" gradientUnits="userSpaceOnUse"><stop offset=".28" stop-color="#19398a"/><stop offset=".316" stop-color="#23368a"/><stop offset=".377" stop-color="#3d2f8a"/><stop offset=".455" stop-color="#67248b"/><stop offset=".546" stop-color="#a1148b"/><stop offset=".649" stop-color="#eb008c"/><stop offset=".65" stop-color="#ec008c"/><stop offset=".685" stop-color="#eb1e7d"/><stop offset=".771" stop-color="#e8645a"/><stop offset=".849" stop-color="#e59b3f"/><stop offset=".915" stop-color="#e3c32b"/><stop offset=".968" stop-color="#e2db1e"/><stop offset="1" stop-color="#e2e41a"/></radialGradient><path d="M51.4 250.1l2.2 2.2 263.8 53c.8-.5 1.7-1.1 2.5-1.7-147.4-38.5-243.2-50.7-268.5-53.5z" fill="url(#A)"/><radialGradient id="B" cx="358.454" cy="259.424" r="289.559" gradientTransform="matrix(-.866 -.5 .4 -.6928 565.114 618.385)" gradientUnits="userSpaceOnUse"><stop offset=".28" stop-color="#19398a"/><stop offset=".316" stop-color="#23368a"/><stop offset=".377" stop-color="#3d2f8a"/><stop offset=".455" stop-color="#67248b"/><stop offset=".546" stop-color="#a1148b"/><stop offset=".649" stop-color="#eb008c"/><stop offset=".65" stop-color="#ec008c"/><stop offset=".685" stop-color="#eb1e7d"/><stop offset=".771" stop-color="#e8645a"/><stop offset=".849" stop-color="#e59b3f"/><stop offset=".915" stop-color="#e3c32b"/><stop offset=".968" stop-color="#e2db1e"/><stop offset="1" stop-color="#e2e41a"/></radialGradient><path d="M23.9 216.4l1.5 2.7 301.4 79.6c.7-.6 1.4-1.2 2.2-1.7-144-48.4-270.2-74-305.1-80.6z" fill="url(#B)"/><radialGradient id="C" cx="358.454" cy="259.424" r="289.559" gradientTransform="matrix(-.866 -.5 .4 -.6928 565.114 618.385)" gradientUnits="userSpaceOnUse"><stop offset=".28" stop-color="#19398a"/><stop offset=".316" stop-color="#23368a"/><stop offset=".377" stop-color="#3d2f8a"/><stop offset=".455" stop-color="#67248b"/><stop offset=".546" stop-color="#a1148b"/><stop offset=".649" stop-color="#eb008c"/><stop offset=".65" stop-color="#ec008c"/><stop offset=".685" stop-color="#eb1e7d"/><stop offset=".771" stop-color="#e8645a"/><stop offset=".849" stop-color="#e59b3f"/><stop offset=".915" stop-color="#e3c32b"/><stop offset=".968" stop-color="#e2db1e"/><stop offset="1" stop-color="#e2e41a"/></radialGradient><path d="M36 233.5l2.3 2.3 284.6 65.8c.6-.4 1.2-.9 1.9-1.4C178.8 257 66.4 238.1 36 233.5z" fill="url(#C)"/><radialGradient id="D" cx="358.454" cy="259.424" r="289.559" gradientTransform="matrix(-.866 -.5 .4 -.6928 565.114 618.385)" gradientUnits="userSpaceOnUse"><stop offset=".28" stop-color="#19398a"/><stop offset=".316" stop-color="#23368a"/><stop offset=".377" stop-color="#3d2f8a"/><stop offset=".455" stop-color="#67248b"/><stop offset=".546" stop-color="#a1148b"/><stop offset=".649" stop-color="#eb008c"/><stop offset=".65" stop-color="#ec008c"/><stop offset=".685" stop-color="#eb1e7d"/><stop offset=".771" stop-color="#e8645a"/><stop offset=".849" stop-color="#e59b3f"/><stop offset=".915" stop-color="#e3c32b"/><stop offset=".968" stop-color="#e2db1e"/><stop offset="1" stop-color="#e2e41a"/></radialGradient><path d="M68.4 265.6l2.8 2.2L311.4 309c.8-.5 1.6-.9 2.4-1.4-144.8-32.9-224.9-40.5-245.4-42z" fill="url(#D)"/><radialGradient id="E" cx="358.454" cy="259.424" r="289.559" gradientTransform="matrix(-.866 -.5 .4 -.6928 565.114 618.385)" gradientUnits="userSpaceOnUse"><stop offset=".28" stop-color="#19398a"/><stop offset=".316" stop-color="#23368a"/><stop offset=".377" stop-color="#3d2f8a"/><stop offset=".455" stop-color="#67248b"/><stop offset=".546" stop-color="#a1148b"/><stop offset=".649" stop-color="#eb008c"/><stop offset=".65" stop-color="#ec008c"/><stop offset=".685" stop-color="#eb1e7d"/><stop offset=".771" stop-color="#e8645a"/><stop offset=".849" stop-color="#e59b3f"/><stop offset=".915" stop-color="#e3c32b"/><stop offset=".968" stop-color="#e2db1e"/><stop offset="1" stop-color="#e2e41a"/></radialGradient><path d="M114.6 297.4l182.7 18.4c1.3-.5 2.6-1.1 3.9-1.7-111.9-17.6-175.2-19.4-194.1-19.2l7.5 2.5z" fill="url(#E)"/></svg>